<svg width="28" height="28" viewBox="0 0 28 28" fill="none" xmlns="http://www.w3.org/2000/svg">
  <path d="M15.2 6.5V15.3C15.2 18.5 12.8 21.1 9.8 21.1C7.4 21.1 5.5 19.3 5.5 16.9C5.5 14.5 7.4 12.7 9.8 12.7C10.6 12.7 11.3 12.9 12 13.2V10.3C11.3 10.1 10.5 10 9.8 10C5.9 10 2.8 13.1 2.8 16.9C2.8 20.8 5.9 23.8 9.8 23.8C13.8 23.8 17 20.6 17 16.6V11.2C17.9 12.1 19.1 12.8 20.5 13.2V10.4C18.5 9.7 16.8 8.3 15.9 6.5H15.2Z" fill="#08FFF9"/>
  <path d="M16.5 4.2V13C16.5 16.2 14.1 18.8 11.1 18.8C8.7 18.8 6.8 17 6.8 14.6C6.8 12.2 8.7 10.4 11.1 10.4C11.9 10.4 12.6 10.6 13.3 10.9V8C12.6 7.8 11.8 7.7 11.1 7.7C7.2 7.7 4.1 10.8 4.1 14.6C4.1 18.5 7.2 21.5 11.1 21.5C15.1 21.5 18.3 18.3 18.3 14.3V8.9C19.2 9.8 20.4 10.5 21.8 10.9V8.1C19.8 7.4 18.1 6 17.2 4.2H16.5Z" fill="#FE2C55"/>
  <path d="M15.8 5.3V14.1C15.8 17.3 13.4 19.9 10.4 19.9C8 19.9 6.1 18.1 6.1 15.7C6.1 13.3 8 11.5 10.4 11.5C11.2 11.5 11.9 11.7 12.6 12V9.1C11.9 8.9 11.1 8.8 10.4 8.8C6.5 8.8 3.4 11.9 3.4 15.7C3.4 19.6 6.5 22.6 10.4 22.6C14.4 22.6 17.6 19.4 17.6 15.4V10C18.5 10.9 19.7 11.6 21.1 12V9.2C19.1 8.5 17.4 7.1 16.5 5.3H15.8Z" fill="#111111"/>
</svg>
